<?xml version="1.0" encoding="utf-8"?>
<!-- Svg Vector Icons : http://www.onlinewebfonts.com/icon -->
<!DOCTYPE svg PUBLIC "-//W3C//DTD SVG 1.1//EN" "http://www.w3.org/Graphics/SVG/1.1/DTD/svg11.dtd">
<svg version="1.1" xmlns="http://www.w3.org/2000/svg" xmlns:xlink="http://www.w3.org/1999/xlink" x="0px" y="0px" viewBox="0 0 1000 1000" enable-background="new 0 0 1000 1000" xml:space="preserve">
<metadata> Svg Vector Icons : http://www.onlinewebfonts.com/icon </metadata>
<g><path d="M169.5,941L10,338.8l171.3-68.7l19.6,50.3l-127.1,51l131.7,497l186.3-74.8l359.7,75.5l174.7-71L794.6,301.2l-176.3,71.6l-19.8-50.3l231.9-94.2L990,830.6l-233.5,94.8l-359.9-75.5L169.5,941L169.5,941z M406.4,710.8c-8.1,0-15.7-3.6-20.9-9.8c-2.2-2.7-55.4-66.9-109.5-147.1c-32-47.5-57.6-90.6-76-128.2c-24.6-50.1-36.5-90-36.5-122.1c0-65.3,25.3-126.8,71.1-173C280.5,84.5,341.5,59,406.4,59c64.9,0,125.9,25.5,171.8,71.6c45.9,46.2,71.1,107.6,71.1,173c0,32-12,72-36.5,122.1c-18.5,37.6-44,80.7-76,128.2C482.6,634.1,429.5,698.3,427.2,701C422.1,707.2,414.4,710.8,406.4,710.8L406.4,710.8L406.4,710.8z M406.4,113.8c-103.9,0-188.5,85.1-188.5,189.8c0,42.8,36.6,120.7,102.9,219.1c32.4,48.1,65.1,91.1,85.6,117.1c20.4-26,53.2-69,85.6-117.1c66.3-98.5,102.9-176.3,102.9-219.1C594.8,198.9,510.3,113.8,406.4,113.8L406.4,113.8L406.4,113.8z M406.4,378.6c-51,0-92.6-41.8-92.6-93.2c0-51.4,41.5-93.2,92.6-93.2c51,0,92.6,41.8,92.6,93.2C498.9,336.8,457.4,378.6,406.4,378.6L406.4,378.6L406.4,378.6z M406.4,247c-21,0-38.1,17.2-38.1,38.4c0,21.2,17.1,38.4,38.1,38.4c21,0,38.1-17.2,38.1-38.4C444.5,264.3,427.4,247,406.4,247L406.4,247L406.4,247z"/></g>
</svg>